HIERARCHY
ROOT Hips
{
	OFFSET 0.00000 0.00000 0.00000
	CHANNELS 6 Xposition Yposition Zposition Zrotation Yrotation Xrotation 
	JOINT LHipJoint
	{
		OFFSET 0 0 0
		CHANNELS 3 Zrotation Yrotation Xrotation
		JOINT LeftUpLeg
		{
			OFFSET 1.41496 -1.84582 0.78394
			CHANNELS 3 Zrotation Yrotation Xrotation
			JOINT LeftLeg
			{
				OFFSET 2.58040 -7.08960 0.00000
				CHANNELS 3 Zrotation Yrotation Xrotation
				JOINT LeftFoot
				{
					OFFSET 2.64719 -7.27309 0.00000
					CHANNELS 3 Zrotation Yrotation Xrotation
					JOINT LeftToeBase
					{
						OFFSET 0.20718 -0.56921 2.20259
						CHANNELS 3 Zrotation Yrotation Xrotation
						End Site
						{
							OFFSET 0.00000 -0.00000 1.14243
						}
					}
				}
			}
		}
	}
	JOINT RHipJoint
	{
		OFFSET 0 0 0
		CHANNELS 3 Zrotation Yrotation Xrotation
		JOINT RightUpLeg
		{
			OFFSET -1.40551 -1.84582 0.78394
			CHANNELS 3 Zrotation Yrotation Xrotation
			JOINT RightLeg
			{
				OFFSET -2.56572 -7.04926 0.00000
				CHANNELS 3 Zrotation Yrotation Xrotation
				JOINT RightFoot
				{
					OFFSET -2.57974 -7.08778 0.00000
					CHANNELS 3 Zrotation Yrotation Xrotation
					JOINT RightToeBase
					{
						OFFSET -0.26704 -0.73369 2.20815
						CHANNELS 3 Zrotation Yrotation Xrotation
						End Site
						{
							OFFSET -0.00000 -0.00000 1.16246
						}
					}
				}
			}
		}
	}
	JOINT LowerBack
	{
		OFFSET 0 0 0
		CHANNELS 3 Zrotation Yrotation Xrotation
		JOINT Spine
		{
			OFFSET -0.04690 2.05196 -0.07017
			CHANNELS 3 Zrotation Yrotation Xrotation
			JOINT Spine1
			{
				OFFSET 0.04085 2.05260 0.00800
				CHANNELS 3 Zrotation Yrotation Xrotation
				JOINT Neck
				{
					OFFSET 0 0 0
					CHANNELS 3 Zrotation Yrotation Xrotation
					JOINT Neck1
					{
						OFFSET -0.03582 1.80995 0.19301
						CHANNELS 3 Zrotation Yrotation Xrotation
						JOINT Head
						{
							OFFSET 0.00952 1.80195 -0.36389
							CHANNELS 3 Zrotation Yrotation Xrotation
							End Site
							{
								OFFSET 0.00392 1.85062 -0.14494
							}
						}
					}
				}
				JOINT LeftShoulder
				{
					OFFSET 0 0 0
					CHANNELS 3 Zrotation Yrotation Xrotation
					JOINT LeftArm
					{
						OFFSET 3.55224 1.39726 -0.13667
						CHANNELS 3 Zrotation Yrotation Xrotation
						JOINT LeftForeArm
						{
							OFFSET 5.14507 -0.00000 -0.00000
							CHANNELS 3 Zrotation Yrotation Xrotation
							JOINT LeftHand
							{
								OFFSET 3.50646 -0.00000 0.00000
								CHANNELS 3 Zrotation Yrotation Xrotation
								JOINT LeftFingerBase
								{
									OFFSET 0 0 0
									CHANNELS 3 Zrotation Yrotation Xrotation
									JOINT LeftHandIndex1
									{
										OFFSET 0.62997 -0.00000 0.00000
										CHANNELS 3 Zrotation Yrotation Xrotation
										End Site
										{
											OFFSET 0.50790 -0.00000 0.00000
										}
									}
								}
								JOINT LThumb
								{
									OFFSET 0 0 0
									CHANNELS 3 Zrotation Yrotation Xrotation
									End Site
									{
										OFFSET 0.51565 -0.00000 0.51565
									}
								}
							}
						}
					}
				}
				JOINT RightShoulder
				{
					OFFSET 0 0 0
					CHANNELS 3 Zrotation Yrotation Xrotation
					JOINT RightArm
					{
						OFFSET -3.06467 1.61290 -0.28813
						CHANNELS 3 Zrotation Yrotation Xrotation
						JOINT RightForeArm
						{
							OFFSET -5.23200 -0.00000 -0.00000
							CHANNELS 3 Zrotation Yrotation Xrotation
							JOINT RightHand
							{
								OFFSET -3.65641 -0.00000 0.00000
								CHANNELS 3 Zrotation Yrotation Xrotation
								JOINT RightFingerBase
								{
									OFFSET 0 0 0
									CHANNELS 3 Zrotation Yrotation Xrotation
									JOINT RightHandIndex1
									{
										OFFSET -0.65681 -0.00000 0.00000
										CHANNELS 3 Zrotation Yrotation Xrotation
										End Site
										{
											OFFSET -0.52953 -0.00000 0.00000
										}
									}
								}
								JOINT RThumb
								{
									OFFSET 0 0 0
									CHANNELS 3 Zrotation Yrotation Xrotation
									End Site
									{
										OFFSET -0.53762 -0.00000 0.53762
									}
								}
							}
						}
					}
				}
			}
		}
	}
}
MOTION
Frames: 10
Frame Time: .0083333
0.9351 16.5424 29.8211 176.1550 -3.0778 -160.6680 0.0000 0.0000 0.0000 -25.7551 -11.0507 -13.1142 3.0195 10.7265 31.3631 3.0928 -4.6775 -32.2661 0.0207 0.9292 2.5540 0.0000 0.0000 0.0000 10.5124 8.5436 -47.9383 -8.8060 -16.6812 55.4166 -1.4768 5.0533 -21.8822 -0.0203 -0.9203 2.5294 -2.9818 -1.3397 11.8034 2.2194 -2.1050 -0.4541 4.4095 -0.9048 -6.9235 -1.5148 -0.4277 -15.9181 -1.1596 -0.0427 11.2475 -0.1276 -0.1732 6.0122 0.0000 -0.0000 0.0000 -88.2391 5.8986 33.6722 23.4464 -34.5733 -7.3901 -0.0000 -0.0000 7.6459 10.7704 10.8730 2.0550 -7.1250 0.0000 -0.0000 -14.3505 40.6192 1.5873 0.0000 -0.0000 0.0000 85.7158 -4.0645 22.1692 -23.5527 34.6876 -7.4504 0.0000 -0.0000 -3.6710 -20.8854 -12.1499 4.5915 7.1250 -0.0000 -0.0000 5.7479 -42.8836 0.3013
0.9451 16.5212 29.7204 176.1760 -2.8987 -160.2410 0.0000 0.0000 0.0000 -25.7205 -11.0424 -13.1347 2.9947 10.6865 31.2298 3.1362 -4.5042 -32.5330 0.0164 0.8281 2.2759 0.0000 0.0000 0.0000 10.5087 8.6866 -48.3462 -8.9748 -16.7915 56.0029 -1.5181 5.1971 -22.1830 -0.0134 -0.7486 2.0572 -2.9190 -1.3493 11.9160 2.2474 -2.1126 -0.4236 4.4091 -0.9111 -6.9551 -1.4784 -0.3719 -15.8358 -1.1590 0.0129 10.8114 -0.1273 -0.1415 5.8597 0.0000 0.0000 0.0000 -88.2491 5.8816 34.1235 23.5560 -34.6912 -7.4523 -0.0000 -0.0000 7.3855 10.9370 10.8823 2.0894 -7.1250 0.0000 -0.0000 -14.2099 40.6429 1.5625 0.0000 0.0000 0.0000 85.7280 -4.1497 22.3946 -23.9546 35.1162 -7.6804 0.0000 -0.0000 -3.6464 -20.7350 -12.2811 4.6037 7.1250 -0.0000 -0.0000 5.9060 -43.0061 0.2917
0.9551 16.4988 29.6171 176.2040 -2.7090 -159.8100 0.0000 0.0000 0.0000 -25.6852 -11.0398 -13.1440 2.9695 10.6454 31.0932 3.1798 -4.3225 -32.8018 0.0128 0.7308 2.0083 0.0000 0.0000 0.0000 10.5062 8.8370 -48.7623 -9.1520 -16.9045 56.6143 -1.5585 5.3402 -22.4729 -0.0077 -0.5652 1.5532 -2.8535 -1.3601 12.0231 2.2760 -2.1212 -0.3909 4.4077 -0.9182 -6.9812 -1.4375 -0.3103 -15.7521 -1.1610 0.0768 10.3666 -0.1279 -0.1053 5.7046 0.0000 -0.0000 0.0000 -88.2610 5.8535 34.5911 23.6779 -34.8218 -7.5218 -0.0000 -0.0000 7.1279 11.0893 10.8877 2.1202 -7.1250 0.0000 -0.0000 -14.0807 40.6613 1.5411 0.0000 -0.0000 0.0000 85.7399 -4.2552 22.6328 -24.3931 35.5772 -7.9341 0.0000 -0.0000 -3.5996 -20.5499 -12.4301 4.6133 7.1250 -0.0000 -0.0000 6.0990 -43.1432 0.2806
0.9652 16.4751 29.5114 176.2400 -2.4977 -159.3680 0.0000 0.0000 0.0000 -25.6495 -11.0355 -13.1558 2.9445 10.6046 30.9578 3.2236 -4.1333 -33.0723 0.0097 0.6351 1.7452 0.0000 0.0000 0.0000 10.5033 9.0037 -49.1953 -9.3375 -17.0200 57.2501 -1.5977 5.4840 -22.7502 -0.0033 -0.3693 1.0148 -2.7900 -1.3682 12.1237 2.3048 -2.1259 -0.3621 4.4069 -0.9232 -7.0081 -1.3906 -0.2426 -15.6648 -1.1672 0.1491 9.9154 -0.1301 -0.0645 5.5474 0.0000 0.0000 0.0000 -88.2719 5.8256 35.0765 23.8207 -34.9741 -7.6035 -0.0000 -0.0000 6.8655 11.2280 10.8747 2.1448 -7.1250 0.0000 -0.0000 -13.9585 40.6606 1.5274 0.0000 0.0000 0.0000 85.7511 -4.3842 22.8855 -24.8614 36.0619 -8.2082 0.0000 -0.0000 -3.5497 -20.3611 -12.5988 4.6280 7.1250 -0.0000 -0.0000 6.2998 -43.3003 0.2654
0.9753 16.4501 29.4032 176.2890 -2.2634 -158.9160 0.0000 0.0000 0.0000 -25.6097 -11.0282 -13.1713 2.9203 10.5649 30.8261 3.2676 -3.9351 -33.3455 0.0069 0.5370 1.4756 0.0000 0.0000 0.0000 10.5029 9.1904 -49.6438 -9.5310 -17.1375 57.9088 -1.6349 5.6259 -23.0104 -0.0006 -0.1645 0.4520 -2.7263 -1.3732 12.2204 2.3344 -2.1263 -0.3372 4.4061 -0.9259 -7.0372 -1.3391 -0.1693 -15.5787 -1.1767 0.2298 9.4590 -0.1335 -0.0192 5.3892 -0.0000 -0.0000 0.0000 -88.2836 5.7993 35.5757 23.9936 -35.1575 -7.7028 -0.0000 -0.0000 6.5877 11.3540 10.8499 2.1646 -7.1250 0.0000 -0.0000 -13.8442 40.6471 1.5190 -0.0000 -0.0000 0.0000 85.7615 -4.5338 23.1608 -25.3550 36.5646 -8.5005 0.0000 -0.0000 -3.5290 -20.2015 -12.7260 4.6341 7.1250 -0.0000 -0.0000 6.4674 -43.4166 0.2539
0.9857 16.4240 29.2922 176.3490 -2.0151 -158.4610 0.0000 0.0000 0.0000 -25.5653 -11.0091 -13.1841 2.8974 10.5270 30.7008 3.3121 -3.7394 -33.6207 0.0045 0.4333 1.1905 0.0000 0.0000 0.0000 10.5074 9.3889 -50.0951 -9.7318 -17.2562 58.5881 -1.6709 5.7704 -23.2587 -0.0000 0.0416 -0.1144 -2.6644 -1.3794 12.3158 2.3659 -2.1281 -0.3137 4.4086 -0.9292 -7.0669 -1.2822 -0.0892 -15.4842 -1.1912 0.3201 8.9926 -0.1388 0.0313 5.2271 -0.0000 -0.0000 0.0000 -88.2968 5.7831 36.0815 24.2052 -35.3805 -7.8251 -0.0000 -0.0000 6.2899 11.4799 10.7963 2.1786 -7.1250 0.0000 -0.0000 -13.7231 40.6051 1.5197 -0.0000 -0.0000 0.0000 85.7696 -4.7156 23.4661 -25.8803 37.0902 -8.8153 0.0000 -0.0000 -3.5575 -20.0917 -12.7861 4.6281 7.1250 -0.0000 -0.0000 6.5778 -43.4675 0.2499
0.9964 16.3967 29.1786 176.4240 -1.7514 -158.0000 0.0000 0.0000 0.0000 -25.5110 -10.9769 -13.2010 2.8758 10.4912 30.5823 3.3561 -3.5454 -33.8920 0.0025 0.3204 0.8804 0.0000 0.0000 0.0000 10.5196 9.6047 -50.5514 -9.9389 -17.3754 59.2841 -1.7052 5.9143 -23.4925 -0.0015 0.2520 -0.6924 -2.5990 -1.3847 12.4040 2.3975 -2.1282 -0.2886 4.4085 -0.9320 -7.0911 -1.2204 -0.0041 -15.3934 -1.2064 0.4174 8.5175 -0.1446 0.0859 5.0633 0.0000 -0.0000 0.0000 -88.3060 5.7718 36.5968 24.4635 -35.6506 -7.9751 -0.0000 -0.0000 5.9649 11.6286 10.7064 2.1894 -7.1250 0.0000 -0.0000 -13.5740 40.5290 1.5285 0.0000 -0.0000 0.0000 85.7824 -4.9131 23.7907 -26.4258 37.6261 -9.1464 0.0000 -0.0000 -3.6475 -20.0560 -12.7576 4.6092 7.1250 -0.0000 -0.0000 6.6045 -43.4337 0.2565
1.0076 16.3682 29.0621 176.5100 -1.4733 -157.5330 0.0000 0.0000 0.0000 -25.4525 -10.9338 -13.2195 2.8556 10.4575 30.4713 3.3991 -3.3506 -34.1583 0.0009 0.1941 0.5333 0.0000 0.0000 0.0000 10.5318 9.8378 -51.0096 -10.1514 -17.4941 59.9931 -1.7372 6.0590 -23.7083 -0.0053 0.4683 -1.2868 -2.5367 -1.3909 12.4928 2.4309 -2.1294 -0.2687 4.4126 -0.9350 -7.1209 -1.1557 0.0878 -15.3008 -1.2254 0.5251 8.0403 -0.1515 0.1460 4.8991 -0.0000 -0.0000 0.0000 -88.3152 5.7769 37.1176 24.7737 -35.9718 -8.1566 -0.0000 -0.0000 5.6057 11.8180 10.5732 2.1987 -7.1250 0.0000 -0.0000 -13.3800 40.4133 1.5447 -0.0000 -0.0000 0.0000 85.7941 -5.1455 24.1525 -26.9919 38.1715 -9.4941 0.0000 -0.0000 -3.8673 -20.1743 -12.5979 4.5817 7.1250 -0.0000 -0.0000 6.4679 -43.2792 0.2759
1.0193 16.3392 28.9425 176.6070 -1.2004 -157.0680 0.0000 0.0000 0.0000 -25.3826 -10.8838 -13.2255 2.8366 10.4258 30.3668 3.4376 -3.1507 -34.4019 0.0000 0.0363 0.0998 0.0000 0.0000 0.0000 10.5527 10.0759 -51.4539 -10.3680 -17.6117 60.7113 -1.7679 6.2009 -23.9133 -0.0115 0.6913 -1.8998 -2.4691 -1.4026 12.5875 2.4674 -2.1372 -0.2492 4.4184 -0.9412 -7.1538 -1.0857 0.1853 -15.2099 -1.2496 0.6411 7.5602 -0.1606 0.2106 4.7349 0.0000 -0.0000 0.0000 -88.3215 5.7940 37.6435 25.1414 -36.3482 -8.3736 -0.0000 -0.0000 5.2096 12.0592 10.3978 2.2081 -7.1250 0.0000 -0.0000 -13.1323 40.2599 1.5656 0.0000 -0.0000 0.0000 85.8067 -5.4145 24.5389 -27.5853 38.7316 -9.8631 0.0000 -0.0000 -4.2042 -20.4288 -12.2946 4.5348 7.1250 -0.0000 -0.0000 6.1835 -42.9878 0.3083
1.0317 16.3097 28.8198 176.7180 -0.9416 -156.6070 0.0000 0.0000 0.0000 -25.2962 -10.8363 -13.2139 2.8189 10.3960 30.2689 3.4715 -2.9453 -34.6224 0.0005 -0.1494 -0.4106 0.0000 0.0000 0.0000 10.5862 10.3152 -51.8771 -10.5873 -17.7271 61.4339 -1.7967 6.3436 -24.1040 -0.0204 0.9219 -2.5340 -2.3862 -1.4216 12.6883 2.5064 -2.1525 -0.2287 4.4199 -0.9518 -7.1889 -1.0084 0.2878 -15.1274 -1.2794 0.7646 7.0829 -0.1722 0.2792 4.5735 0.0000 -0.0000 0.0000 -88.3208 5.8163 38.1747 25.5711 -36.7820 -8.6295 -0.0000 -0.0000 4.7743 12.3489 10.1871 2.2174 -7.1250 0.0000 -0.0000 -12.8362 40.0747 1.5886 0.0000 -0.0000 0.0000 85.8294 -5.7120 24.9177 -28.2071 39.3062 -10.2546 0.0000 -0.0000 -4.5827 -20.7496 -11.9107 4.4709 7.1250 -0.0000 -0.0000 5.8284 -42.6168 0.3440
